<svg width="16.815445" height="16.815460" viewBox="0 0 16.8154 16.8155" fill="none" xmlns="http://www.w3.org/2000/svg" xmlns:xlink="http://www.w3.org/1999/xlink">
	<desc>
			Created with Pixso.
	</desc>
	<defs/>
	<rect id="vuesax/outline/message" rx="0.000000" width="15.000000" height="15.000000" transform="translate(1.337372 0.500000) rotate(3.000000)" fill="#FFFFFF" fill-opacity="0"/>
	<path id="Vector" d="M8.03 15.6C7.57 15.58 7.15 15.32 6.86 14.9L5.93 13.51C5.91 13.49 5.84 13.45 5.8 13.44L5.47 13.42C2.69 13.28 1.01 12.44 1.21 8.69L1.39 5.36C1.54 2.42 3.17 0.95 6.11 1.11L11.44 1.39C14.38 1.54 15.85 3.17 15.7 6.11L15.52 9.44C15.37 12.39 13.74 13.86 10.8 13.7L10.46 13.68C10.41 13.68 10.36 13.71 10.33 13.74L9.26 15.02C8.93 15.41 8.48 15.62 8.03 15.6ZM6.06 2.1C3.68 1.98 2.51 3.03 2.38 5.42L2.21 8.75C2.05 11.76 3.06 12.3 5.52 12.42L5.85 12.44C6.19 12.46 6.57 12.67 6.76 12.96L7.69 14.34C7.91 14.66 8.24 14.68 8.49 14.38L9.56 13.1C9.79 12.82 10.15 12.67 10.51 12.69L10.85 12.7C13.23 12.83 14.4 11.77 14.53 9.39L14.7 6.06C14.83 3.68 13.77 2.51 11.39 2.38L6.06 2.1Z" fill="#787486" fill-opacity="1.000000" fill-rule="nonzero"/>
	<path id="Vector" d="M8.4 8.4C8.03 8.38 7.75 8.07 7.77 7.7C7.79 7.34 8.11 7.05 8.47 7.07C8.84 7.09 9.12 7.41 9.1 7.77C9.08 8.14 8.78 8.42 8.4 8.4Z" fill="#787486" fill-opacity="1.000000" fill-rule="nonzero"/>
	<path id="Vector" d="M11.07 8.54C10.69 8.52 10.42 8.21 10.43 7.84C10.45 7.48 10.77 7.19 11.14 7.21C11.5 7.23 11.79 7.55 11.77 7.91C11.75 8.28 11.44 8.56 11.07 8.54Z" fill="#787486" fill-opacity="1.000000" fill-rule="nonzero"/>
	<path id="Vector" d="M5.74 8.26C5.37 8.24 5.09 7.93 5.11 7.56C5.13 7.2 5.44 6.91 5.81 6.93C6.18 6.95 6.46 7.27 6.44 7.63C6.42 8 6.11 8.28 5.74 8.26Z" fill="#787486" fill-opacity="1.000000" fill-rule="nonzero"/>
	<g opacity="0.000000"/>
</svg>
