<svg width="13.670349" height="2.937500" viewBox="0 0 13.6703 2.9375" fill="none" xmlns="http://www.w3.org/2000/svg" xmlns:xlink="http://www.w3.org/1999/xlink">
	<desc>
			Created with Pixso.
	</desc>
	<defs/>
	<path id=". . ." d="M2.95 1.46C2.94 2.27 2.25 2.93 1.47 2.93C0.66 2.93 -0.02 2.27 0 1.46C-0.02 0.65 0.66 0 1.47 0C2.25 0 2.94 0.65 2.95 1.46ZM8.31 1.46C8.3 2.27 7.61 2.93 6.83 2.93C6.01 2.93 5.34 2.27 5.35 1.46C5.34 0.65 6.01 0 6.83 0C7.61 0 8.3 0.65 8.31 1.46ZM13.67 1.46C13.65 2.27 12.97 2.93 12.18 2.93C11.37 2.93 10.7 2.27 10.71 1.46C10.7 0.65 11.37 0 12.18 0C12.97 0 13.65 0.65 13.67 1.46Z" fill="#0D062D" fill-opacity="1.000000" fill-rule="evenodd"/>
</svg>
