<svg width="16.815445" height="16.815460" viewBox="0 0 16.8154 16.8155" fill="none" xmlns="http://www.w3.org/2000/svg" xmlns:xlink="http://www.w3.org/1999/xlink">
	<desc>
			Created with Pixso.
	</desc>
	<defs/>
	<rect id="vuesax/linear/folder-2" rx="0.000000" width="15.000000" height="15.000000" transform="translate(1.337372 0.500000) rotate(3.000000)" fill="#FFFFFF" fill-opacity="0"/>
	<path id="Vector" d="M14.55 12.06C14.41 14.73 13.71 15.36 11.05 15.22L4.39 14.87C1.73 14.73 1.1 14.03 1.24 11.37L1.59 4.71C1.73 2.04 2.43 1.41 5.09 1.55L6.09 1.61C7.09 1.66 7.29 1.96 7.64 2.49L8.57 3.87C8.81 4.22 8.95 4.43 9.61 4.46L11.61 4.57C14.27 4.7 14.9 5.41 14.76 8.07L14.55 12.06Z" stroke="#787486" stroke-opacity="1.000000" stroke-width="1.000000"/>
	<path id="Vector" d="M6.09 1.61L12.08 1.92C13.41 1.99 14.04 2.69 13.97 4.02L13.92 4.94" stroke="#787486" stroke-opacity="1.000000" stroke-width="1.000000" stroke-linejoin="round" stroke-linecap="round"/>
	<g opacity="0.000000"/>
	<path id="Vector" d="M9.63 10.47L6.3 10.3" stroke="#787486" stroke-opacity="1.000000" stroke-width="1.000000" stroke-linejoin="round" stroke-linecap="round"/>
</svg>
