<svg width="24.000000" height="24.000000" viewBox="0 0 24 24" fill="none" xmlns="http://www.w3.org/2000/svg" xmlns:xlink="http://www.w3.org/1999/xlink">
	<desc>
			Created with Pixso.
	</desc>
	<defs/>
	<rect id="vuesax/outline/category" rx="0.000000" width="23.000000" height="23.000000" transform="translate(0.500000 0.500000)" fill="#FFFFFF" fill-opacity="0"/>
	<path id="Vector" d="M7 10.75L5 10.75C2.58 10.75 1.25 9.42 1.25 7L1.25 5C1.25 2.57 2.58 1.25 5 1.25L7 1.25C9.41 1.25 10.75 2.57 10.75 5L10.75 7C10.75 9.42 9.41 10.75 7 10.75ZM5 2.75C3.41 2.75 2.75 3.42 2.75 5L2.75 7C2.75 8.57 3.41 9.25 5 9.25L7 9.25C8.58 9.25 9.25 8.57 9.25 7L9.25 5C9.25 3.42 8.58 2.75 7 2.75L5 2.75Z" fill="#787486" fill-opacity="1.000000" fill-rule="nonzero"/>
	<path id="Vector" d="M19 10.75L17 10.75C14.58 10.75 13.25 9.42 13.25 7L13.25 5C13.25 2.57 14.58 1.25 17 1.25L19 1.25C21.42 1.25 22.75 2.57 22.75 5L22.75 7C22.75 9.42 21.42 10.75 19 10.75ZM17 2.75C15.42 2.75 14.75 3.42 14.75 5L14.75 7C14.75 8.57 15.42 9.25 17 9.25L19 9.25C20.58 9.25 21.25 8.57 21.25 7L21.25 5C21.25 3.42 20.58 2.75 19 2.75L17 2.75Z" fill="#787486" fill-opacity="1.000000" fill-rule="nonzero"/>
	<path id="Vector" d="M19 22.75L17 22.75C14.58 22.75 13.25 21.42 13.25 19L13.25 17C13.25 14.58 14.58 13.25 17 13.25L19 13.25C21.42 13.25 22.75 14.58 22.75 17L22.75 19C22.75 21.42 21.42 22.75 19 22.75ZM17 14.75C15.42 14.75 14.75 15.42 14.75 17L14.75 19C14.75 20.58 15.42 21.25 17 21.25L19 21.25C20.58 21.25 21.25 20.58 21.25 19L21.25 17C21.25 15.42 20.58 14.75 19 14.75L17 14.75Z" fill="#787486" fill-opacity="1.000000" fill-rule="nonzero"/>
	<path id="Vector" d="M7 22.75L5 22.75C2.58 22.75 1.25 21.42 1.25 19L1.25 17C1.25 14.58 2.58 13.25 5 13.25L7 13.25C9.41 13.25 10.75 14.58 10.75 17L10.75 19C10.75 21.42 9.41 22.75 7 22.75ZM5 14.75C3.41 14.75 2.75 15.42 2.75 17L2.75 19C2.75 20.58 3.41 21.25 5 21.25L7 21.25C8.58 21.25 9.25 20.58 9.25 19L9.25 17C9.25 15.42 8.58 14.75 7 14.75L5 14.75Z" fill="#787486" fill-opacity="1.000000" fill-rule="nonzero"/>
	<g opacity="0.000000"/>
</svg>
