<svg width="24.000000" height="24.000000" viewBox="0 0 24 24" fill="none" xmlns="http://www.w3.org/2000/svg" xmlns:xlink="http://www.w3.org/1999/xlink">
	<desc>
			Created with Pixso.
	</desc>
	<defs/>
	<path d="M6.01 8.91L6.01 11.8C6.01 12.41 5.75 13.34 5.44 13.86L4.29 15.77C3.58 16.95 4.07 18.26 5.37 18.7C9.68 20.14 14.34 20.14 18.65 18.7C19.86 18.29 20.39 16.87 19.73 15.77L18.58 13.86C18.28 13.34 18.02 12.41 18.02 11.8L18.02 8.91C18.02 5.61 15.32 2.91 12.02 2.91C8.7 2.91 6.01 5.6 6.01 8.91Z" stroke="#787486" stroke-opacity="1.000000" stroke-width="1.500000"/>
	<path d="M12.91 3C11.95 2.88 11.03 2.95 10.17 3.2C10.46 2.45 11.18 1.94 12.02 1.94C12.86 1.94 13.58 2.45 13.87 3.2C13.56 3.11 13.24 3.04 12.91 3Z" stroke="#787486" stroke-opacity="1.000000" stroke-width="1.500000" stroke-linejoin="round"/>
	<path d="M15.02 19.06C15.02 20.71 13.67 22.06 12.02 22.06C11.2 22.06 10.44 21.72 9.9 21.18C9.36 20.64 9.02 19.87 9.02 19.06" stroke="#787486" stroke-opacity="1.000000" stroke-width="1.500000"/>
	<g opacity="0.000000"/>
</svg>
