<svg width="24.000000" height="24.000000" viewBox="0 0 24 24" fill="none" xmlns="http://www.w3.org/2000/svg" xmlns:xlink="http://www.w3.org/1999/xlink">
	<desc>
			Created with Pixso.
	</desc>
	<defs/>
	<rect id="vuesax/bulk/add-square" rx="0.000000" width="23.000000" height="23.000000" transform="translate(0.500000 0.500000)" fill="#FFFFFF" fill-opacity="0"/>
	<g opacity="0.200000">
		<path id="Vector" d="M16.19 2L7.81 2C4.17 2 2 4.17 2 7.81L2 16.18C2 19.83 4.17 22 7.81 22L16.18 22C19.82 22 21.99 19.83 21.99 16.19L21.99 7.81C22 4.17 19.83 2 16.19 2Z" fill="#5030E5" fill-opacity="1.000000" fill-rule="nonzero"/>
	</g>
	<path id="Vector" d="M16 11.25L12.75 11.25L12.75 8C12.75 7.59 12.41 7.25 12 7.25C11.59 7.25 11.25 7.59 11.25 8L11.25 11.25L8 11.25C7.59 11.25 7.25 11.59 7.25 12C7.25 12.41 7.59 12.75 8 12.75L11.25 12.75L11.25 16C11.25 16.41 11.59 16.75 12 16.75C12.41 16.75 12.75 16.41 12.75 16L12.75 12.75L16 12.75C16.41 12.75 16.75 12.41 16.75 12C16.75 11.59 16.41 11.25 16 11.25Z" fill="#5030E5" fill-opacity="1.000000" fill-rule="nonzero"/>
	<g opacity="0.000000"/>
</svg>
