<svg width="26.000000" height="20.000000" viewBox="0 0 26 20" fill="none" xmlns="http://www.w3.org/2000/svg" xmlns:xlink="http://www.w3.org/1999/xlink">
	<desc>
			Created with Pixso.
	</desc>
	<defs/>
	<rect id="vuesax/outline/arrow-left" rx="0.000000" width="19.000000" height="19.000000" transform="translate(6.500000 0.500000)" fill="#FFFFFF" fill-opacity="0"/>
	<path id="Vector" d="M18.5 17.22C18.34 17.22 18.18 17.16 18.05 17.04L12.62 11.6C11.74 10.72 11.74 9.27 12.62 8.39L18.05 2.95C18.29 2.71 18.7 2.71 18.94 2.95C19.18 3.2 19.18 3.6 18.94 3.84L13.5 9.27C13.1 9.67 13.1 10.32 13.5 10.72L18.94 16.15C19.18 16.4 19.18 16.79 18.94 17.04C18.81 17.15 18.65 17.22 18.5 17.22Z" fill="#787486" fill-opacity="1.000000" fill-rule="nonzero"/>
	<g opacity="0.000000"/>
	<rect id="vuesax/outline/arrow-left" rx="0.000000" width="19.000000" height="19.000000" transform="translate(0.500000 0.500000)" fill="#FFFFFF" fill-opacity="0"/>
	<path id="Vector" d="M12.5 17.22C12.34 17.22 12.18 17.16 12.05 17.04L6.62 11.6C5.74 10.72 5.74 9.27 6.62 8.39L12.05 2.95C12.3 2.71 12.7 2.71 12.94 2.95C13.18 3.2 13.18 3.6 12.94 3.84L7.5 9.27C7.1 9.67 7.1 10.32 7.5 10.72L12.94 16.15C13.18 16.4 13.18 16.79 12.94 17.04C12.81 17.15 12.65 17.22 12.5 17.22Z" fill="#787486" fill-opacity="1.000000" fill-rule="nonzero"/>
	<g opacity="0.000000"/>
</svg>
