<svg width="24.000000" height="24.000000" viewBox="0 0 24 24" fill="none" xmlns="http://www.w3.org/2000/svg" xmlns:xlink="http://www.w3.org/1999/xlink">
	<desc>
			Created with Pixso.
	</desc>
	<defs/>
	<rect id="vuesax/bulk/lamp-on" rx="0.000000" width="23.000000" height="23.000000" transform="translate(0.500000 0.500000)" fill="#FFFFFF" fill-opacity="0"/>
	<path id="Vector" d="M19.2 6.36C18.17 4.26 16.16 2.71 13.83 2.2C11.39 1.66 8.88 2.24 6.97 3.78C5.06 5.31 3.96 7.6 3.96 10.05C3.96 12.64 5.51 15.35 7.85 16.92L7.85 17.75C7.84 18.03 7.83 18.45 8.17 18.81C8.52 19.17 9.04 19.2 9.45 19.2L14.59 19.2C15.12 19.2 15.54 19.06 15.81 18.78C16.2 18.39 16.18 17.89 16.18 17.62L16.18 16.92C19.28 14.83 21.23 10.42 19.2 6.36Z" fill="#FBCB18" fill-opacity="1.000000" fill-rule="nonzero"/>
	<path id="Vector" d="M15.26 22C15.2 22 15.13 21.99 15.07 21.97C13.06 21.4 10.95 21.4 8.93 21.97C8.57 22.07 8.18 21.86 8.08 21.49C7.97 21.12 8.18 20.73 8.56 20.63C10.82 19.99 13.2 19.99 15.46 20.63C15.83 20.74 16.04 21.12 15.94 21.49C15.84 21.8 15.56 22 15.26 22Z" fill="#FBCB18" fill-opacity="1.000000" fill-rule="nonzero"/>
	<g opacity="0.000000"/>
</svg>
