<svg width="24.000000" height="24.000000" viewBox="0 0 24 24" fill="none" xmlns="http://www.w3.org/2000/svg" xmlns:xlink="http://www.w3.org/1999/xlink">
	<desc>
			Created with Pixso.
	</desc>
	<defs/>
	<rect id="vuesax/linear/profile-2user" rx="0.000000" width="23.000000" height="23.000000" transform="translate(0.500000 0.500000)" fill="#FFFFFF" fill-opacity="0"/>
	<path id="Vector" d="M8.83 10.87C6.45 10.79 4.56 8.84 4.56 6.44C4.56 3.99 6.53 2 9 2C11.45 2 13.44 3.99 13.44 6.44C13.43 8.84 11.54 10.79 9.15 10.87C9.06 10.86 8.93 10.86 8.83 10.87Z" stroke="#787486" stroke-opacity="1.000000" stroke-width="1.500000" stroke-linejoin="round"/>
	<path id="Vector" d="M16.41 4C18.35 4 19.91 5.57 19.91 7.5C19.91 9.39 18.41 10.93 16.54 11C16.45 10.99 16.37 10.99 16.28 11" stroke="#787486" stroke-opacity="1.000000" stroke-width="1.500000" stroke-linejoin="round" stroke-linecap="round"/>
	<path id="Vector" d="M4.15 20.43C6.9 22.27 11.42 22.27 14.17 20.43C16.59 18.81 16.59 16.17 14.17 14.56C11.43 12.73 6.91 12.73 4.15 14.56C1.73 16.18 1.73 18.82 4.15 20.43Z" stroke="#787486" stroke-opacity="1.000000" stroke-width="1.500000" stroke-linejoin="round"/>
	<path id="Vector" d="M18.34 20C19.05 19.85 19.74 19.56 20.29 19.12C21.86 17.95 21.86 16.03 20.29 14.86C19.74 14.44 19.08 14.16 18.37 14" stroke="#787486" stroke-opacity="1.000000" stroke-width="1.500000" stroke-linejoin="round" stroke-linecap="round"/>
	<g opacity="0.000000"/>
</svg>
