<svg width="24.000000" height="24.000000" viewBox="0 0 24 24" fill="none" xmlns="http://www.w3.org/2000/svg" xmlns:xlink="http://www.w3.org/1999/xlink">
	<desc>
			Created with Pixso.
	</desc>
	<defs/>
	<rect id="vuesax/linear/message-question" rx="0.000000" width="23.000000" height="23.000000" transform="translate(0.500000 0.500000)" fill="#FFFFFF" fill-opacity="0"/>
	<path id="Vector" d="M13 18.43L8.54 21.39C7.88 21.83 7 21.36 7 20.56L7 18.43C4 18.43 2 16.43 2 13.43L2 7.42C2 4.42 4 2.42 7 2.42L17 2.42C20 2.42 22 4.42 22 7.42L22 13.43C22 16.43 20 18.43 17 18.43L13 18.43Z" stroke="#787486" stroke-opacity="1.000000" stroke-width="1.500000" stroke-linejoin="round"/>
	<path id="Vector" d="M12 11.36L12 11.15C12 10.47 12.42 10.1 12.84 9.82C13.25 9.54 13.66 9.18 13.66 8.52C13.66 7.6 12.92 6.85 12 6.85C11.08 6.85 10.34 7.6 10.34 8.52" stroke="#787486" stroke-opacity="1.000000" stroke-width="1.500000" stroke-linejoin="round" stroke-linecap="round"/>
	<g opacity="0.000000"/>
	<path id="Vector" d="M11.99 13.75L12 13.75" stroke="#787486" stroke-opacity="1.000000" stroke-width="1.500000" stroke-linejoin="round" stroke-linecap="round"/>
</svg>
