<svg width="24.000000" height="24.000000" viewBox="0 0 24 24" fill="none" xmlns="http://www.w3.org/2000/svg" xmlns:xlink="http://www.w3.org/1999/xlink">
	<desc>
			Created with Pixso.
	</desc>
	<defs/>
	<rect id="vuesax/linear/setting-2" rx="0.000000" width="23.000000" height="23.000000" transform="translate(0.500000 0.500000)" fill="#FFFFFF" fill-opacity="0"/>
	<path id="Vector" d="M12 15C10.34 15 9 13.65 9 12C9 10.34 10.34 9 12 9C13.65 9 15 10.34 15 12C15 13.65 13.65 15 12 15Z" stroke="#787486" stroke-opacity="1.000000" stroke-width="1.500000" stroke-linejoin="round"/>
	<path id="Vector" d="M2 11.12C2 10.08 2.84 9.22 3.9 9.22C5.71 9.22 6.45 7.94 5.53 6.37C5.02 5.47 5.33 4.3 6.23 3.78L7.96 2.78C8.76 2.31 9.78 2.59 10.25 3.39L10.36 3.58C11.26 5.14 12.74 5.14 13.65 3.58L13.76 3.39C14.23 2.59 15.25 2.31 16.04 2.78L17.77 3.78C18.68 4.3 18.99 5.47 18.46 6.37C17.56 7.94 18.29 9.22 20.11 9.22C21.15 9.22 22.01 10.07 22.01 11.12L22.01 12.88C22.01 13.92 21.16 14.78 20.11 14.78C18.29 14.78 17.56 16.06 18.46 17.62C18.99 18.54 18.68 19.7 17.77 20.21L16.04 21.21C15.25 21.68 14.23 21.4 13.76 20.61L13.65 20.42C12.75 18.85 11.27 18.85 10.36 20.42L10.25 20.61C9.78 21.4 8.76 21.68 7.96 21.21L6.23 20.21C5.33 19.7 5.02 18.53 5.53 17.62C6.45 16.06 5.71 14.78 3.9 14.78C2.84 14.78 2 13.92 2 12.88L2 11.12Z" stroke="#787486" stroke-opacity="1.000000" stroke-width="1.500000" stroke-linejoin="round"/>
	<g opacity="0.000000"/>
</svg>
